<svg class="svg-icon" style="width: 1em; height: 1em;vertical-align: middle;fill: currentColor;overflow: hidden;" viewBox="0 0 1024 1024" version="1.1" xmlns="http://www.w3.org/2000/svg"><path d="M616.106667 891.855238H281.112381a60.952381 60.952381 0 0 1-60.952381-60.952381V192.609524a60.952381 60.952381 0 0 1 60.952381-60.952381h352.548571a60.952381 60.952381 0 0 1 60.952381 60.952381v224.060952c0 6.826667-5.36381 12.190476-12.190476 12.190476s-12.190476-5.36381-12.190476-12.190476V192.609524c0-20.23619-16.335238-36.571429-36.571429-36.571429H281.112381c-20.23619 0-36.571429 16.335238-36.571429 36.571429v638.293333c0 20.23619 16.335238 36.571429 36.571429 36.571429h334.994286c6.826667 0 12.190476 5.36381 12.190476 12.190476s-5.36381 12.190476-12.190476 12.190476z"  /><path d="M682.422857 279.649524H232.350476c-6.826667 0-12.190476-5.36381-12.190476-12.190476s5.36381-12.190476 12.190476-12.190477h450.072381c6.826667 0 12.190476 5.36381 12.190476 12.190477s-5.607619 12.190476-12.190476 12.190476zM506.148571 750.445714H232.350476c-6.826667 0-12.190476-5.36381-12.190476-12.190476s5.36381-12.190476 12.190476-12.190476h273.798095c6.826667 0 12.190476 5.36381 12.190477 12.190476s-5.36381 12.190476-12.190477 12.190476zM504.441905 216.746667h-94.110476c-6.826667 0-12.190476-5.36381-12.190477-12.190477s5.36381-12.190476 12.190477-12.190476h94.110476c6.826667 0 12.190476 5.36381 12.190476 12.190476s-5.36381 12.190476-12.190476 12.190477zM481.767619 817.005714h-48.761905c-6.826667 0-12.190476-5.36381-12.190476-12.190476s5.36381-12.190476 12.190476-12.190476h48.761905c6.826667 0 12.190476 5.36381 12.190476 12.190476s-5.607619 12.190476-12.190476 12.190476z"  /><path d="M457.386667 507.855238c-45.348571 0-82.16381-40.96-82.16381-91.184762s36.815238-91.184762 82.16381-91.184762 82.16381 40.96 82.163809 91.184762-36.815238 91.184762-82.163809 91.184762z m0-157.744762c-31.939048 0-57.782857 29.988571-57.782857 66.80381 0 36.815238 26.087619 66.80381 57.782857 66.803809s57.782857-29.988571 57.782857-66.803809c0-37.059048-25.84381-66.80381-57.782857-66.80381zM302.32381 705.097143c-6.826667 0-12.190476-5.36381-12.190477-12.190476v-61.927619c0-57.295238 73.386667-102.15619 167.253334-102.156191 12.921905 0 25.84381 0.975238 38.278095 2.681905 6.582857 0.975238 11.215238 7.070476 10.483809 13.653333s-7.070476 11.215238-13.653333 10.48381c-11.215238-1.462857-23.161905-2.438095-34.864762-2.438095-77.531429 0-142.872381 35.59619-142.872381 77.775238v61.927619c-0.24381 6.826667-5.851429 12.190476-12.434285 12.190476z"  /><path d="M376.198095 705.097143c-6.826667 0-12.190476-5.36381-12.190476-12.190476v-26.331429c0-6.826667 5.36381-12.190476 12.190476-12.190476s12.190476 5.36381 12.190476 12.190476v26.331429c0 6.826667-5.607619 12.190476-12.190476 12.190476zM457.386667 667.062857c-6.826667 0-12.190476-5.36381-12.190477-12.190476v-66.80381c0-6.826667 5.36381-12.190476 12.190477-12.190476s12.190476 5.36381 12.190476 12.190476v66.80381c0 6.582857-5.607619 12.190476-12.190476 12.190476z"  /><path d="M728.990476 913.798095c-2.438095 0-4.632381-0.731429-6.826666-1.950476-14.872381-9.99619-147.017143-98.742857-166.521905-149.211429-33.401905-86.308571-27.306667-206.506667-26.819048-211.626666 0-39.253333 187.977143-105.081905 200.167619-105.081905s200.167619 65.584762 200.167619 105.569524c0.24381 4.388571 6.339048 124.830476-26.819047 211.139047-19.504762 50.468571-151.405714 139.215238-166.521905 149.211429-2.194286 1.219048-4.632381 1.950476-6.826667 1.950476z m-0.243809-443.489524c-22.430476 1.219048-166.521905 63.146667-176.030477 83.139048 0.24381 0-5.851429 118.979048 25.6 200.411429 13.409524 34.620952 107.52 103.862857 150.430477 133.12 42.910476-29.257143 137.020952-98.255238 150.430476-133.12 31.451429-81.432381 25.35619-200.411429 25.35619-201.630477-9.020952-18.773333-153.112381-80.944762-175.786666-81.92z"  /><path d="M714.605714 755.321905a11.459048 11.459048 0 0 1-8.533333-3.657143l-78.019048-78.019048c-4.87619-4.87619-4.87619-12.434286 0-17.310476s12.434286-4.87619 17.310477 0l69.485714 69.485714 118.003809-118.003809c4.87619-4.87619 12.434286-4.87619 17.310477 0s4.87619 12.434286 0 17.310476l-126.537143 126.537143c-2.681905 2.438095-5.851429 3.657143-9.020953 3.657143z"  /></svg>